<svg preserveAspectRatio="none" overflow="visible" style="display: block;" width="26" height="25" viewBox="0 0 26 25" fill="none" xmlns="http://www.w3.org/2000/svg">
<path id="Vector" fill-rule="evenodd" clip-rule="evenodd" d="M19.767 17.2992C20.6504 17.2992 21.3773 16.586 21.3773 15.7192C21.3773 14.8525 20.6504 14.1393 19.767 14.1393C18.8837 14.1393 18.1567 14.8525 18.1567 15.7192C18.1567 16.586 18.8837 17.2992 19.767 17.2992ZM21.4436 24.2706C23.29 22.3087 26 18.8988 26 15.788C26 12.0727 23.2095 9.67256 19.767 9.67256C16.3246 9.67256 13.5341 12.0727 13.5341 15.788C13.5341 18.8735 16.2491 22.2957 18.0955 24.2661C19.0102 25.2425 20.5267 25.2453 21.4436 24.2706ZM22.8796 19.5575C23.7198 18.1825 24.2108 16.8793 24.2108 15.788C24.2108 13.106 22.2877 11.4281 19.767 11.4281C17.2467 11.4281 15.3233 13.1063 15.3233 15.788C15.3233 16.8642 15.8136 18.1632 16.6566 19.542C17.4808 20.8895 18.5339 22.1401 19.4124 23.0776C19.528 23.2012 19.6572 23.2444 19.7713 23.2444C19.8855 23.2444 20.014 23.2022 20.1292 23.0797C21.007 22.1468 22.058 20.9025 22.8796 19.5575ZM6.84058 2.27592V19.0852L2.62981 21.3474C2.33831 21.5039 1.96795 21.2886 1.96779 20.9626V4.39692C1.96779 4.36181 1.98926 4.33021 2.02147 4.31616L6.84058 2.27592ZM8.80873 18.9901V2.18358L15.436 4.53525V9.34112C16.0537 8.98942 16.7153 8.71796 17.4042 8.53359V4.47416L21.5065 2.60806C21.7973 2.47603 22.1416 2.69185 22.1417 3.00621V8.53604C22.8308 8.7216 23.4925 8.99436 24.1099 9.34744V3.00656C24.1099 1.27493 22.2795 0.127881 20.6785 0.856064L16.3739 2.81415L8.95938 0.183004C8.21022 -0.082785 7.3852 -0.0582861 6.65378 0.251469L1.24208 2.5431C0.489539 2.86186 -0.000131362 3.59269 2.6434e-08 4.39692V20.9626C2.6434e-08 22.7634 1.96601 23.9062 3.57559 23.0411L7.90016 20.7175L15.4042 23.5007C14.8005 22.7971 14.1839 22.005 13.6357 21.1606C13.5295 20.9973 13.4262 20.8323 13.3258 20.6655L8.80873 18.9901Z" fill="#008BFF"/>
</svg>
