<svg width="163" height="69" viewBox="0 0 163 69" fill="none" xmlns="http://www.w3.org/2000/svg">
<mask id="path-1-outside-1_160_2362" maskUnits="userSpaceOnUse" x="0" y="0" width="163" height="69" fill="black">
<rect fill="white" width="163" height="69"/>
<path d="M134.771 13.4555C135.036 13.9086 135.606 14.0798 136.077 13.8476L147.192 8.36407C148.01 7.96043 148.897 8.77344 148.567 9.62363L144.661 19.6558C144.406 20.3114 144.89 21.0186 145.593 21.0186H153.345C157.271 21.0188 160.429 24.2469 160.343 28.1719L159.65 59.6533C159.567 63.4584 156.458 66.4999 152.652 66.5H9C5.13403 66.5 2 63.366 2 59.5V28.0186C2.00009 24.1527 5.13408 21.0186 9 21.0186H109.407C110.11 21.0186 110.594 20.3114 110.339 19.6558L106.433 9.62363C106.103 8.77344 106.99 7.96043 107.808 8.36406L118.923 13.8476C119.394 14.0798 119.964 13.9086 120.229 13.4555L126.637 2.4952C127.023 1.83481 127.977 1.83481 128.363 2.4952L134.771 13.4555Z"/>
</mask>
<path d="M134.771 13.4555C135.036 13.9086 135.606 14.0798 136.077 13.8476L147.192 8.36407C148.01 7.96043 148.897 8.77344 148.567 9.62363L144.661 19.6558C144.406 20.3114 144.89 21.0186 145.593 21.0186H153.345C157.271 21.0188 160.429 24.2469 160.343 28.1719L159.65 59.6533C159.567 63.4584 156.458 66.4999 152.652 66.5H9C5.13403 66.5 2 63.366 2 59.5V28.0186C2.00009 24.1527 5.13408 21.0186 9 21.0186H109.407C110.11 21.0186 110.594 20.3114 110.339 19.6558L106.433 9.62363C106.103 8.77344 106.99 7.96043 107.808 8.36406L118.923 13.8476C119.394 14.0798 119.964 13.9086 120.229 13.4555L126.637 2.4952C127.023 1.83481 127.977 1.83481 128.363 2.4952L134.771 13.4555Z" fill="white"/>
<path d="M153.345 21.0186L153.345 19.0186H153.345V21.0186ZM160.343 28.1719L162.342 28.2159V28.2158L160.343 28.1719ZM159.65 59.6533L157.651 59.6093V59.6094L159.65 59.6533ZM152.652 66.5V68.5H152.652L152.652 66.5ZM9 66.5L8.99999 68.5H9V66.5ZM2 28.0186L0 28.0185V28.0186H2ZM9 21.0186V19.0186H8.99999L9 21.0186ZM126.637 2.4952L128.363 3.50461L126.637 2.4952ZM128.363 2.4952L126.637 3.50461L128.363 2.4952ZM147.192 8.36407L148.077 10.1577L147.192 8.36407ZM148.567 9.62363L146.703 8.89812L148.567 9.62363ZM106.433 9.62363L108.297 8.89812L106.433 9.62363ZM107.808 8.36406L106.923 10.1577L107.808 8.36406ZM118.923 13.8476L118.038 15.6412L118.923 13.8476ZM120.229 13.4555L118.502 12.4461L120.229 13.4555ZM144.661 19.6558L146.525 20.3813L144.661 19.6558ZM110.339 19.6558L112.202 18.9303L110.339 19.6558ZM134.771 13.4555L136.498 12.4461L134.771 13.4555ZM136.077 13.8476L136.962 15.6412L148.077 10.1577L147.192 8.36407L146.307 6.57045L135.192 12.054L136.077 13.8476ZM148.567 9.62363L146.703 8.89812L142.798 18.9303L144.661 19.6558L146.525 20.3813L150.43 10.3491L148.567 9.62363ZM145.593 21.0186V23.0186H153.345V21.0186V19.0186H145.593V21.0186ZM153.345 21.0186L153.345 23.0186C156.149 23.0187 158.405 25.3246 158.343 28.128L160.343 28.1719L162.342 28.2158C162.453 23.1692 158.392 19.0189 153.345 19.0186L153.345 21.0186ZM160.343 28.1719L158.343 28.1279L157.651 59.6093L159.65 59.6533L161.65 59.6973L162.342 28.2159L160.343 28.1719ZM159.65 59.6533L157.651 59.6094C157.591 62.3275 155.371 64.5 152.652 64.5L152.652 66.5L152.652 68.5C157.546 68.4999 161.542 64.5893 161.65 59.6973L159.65 59.6533ZM152.652 66.5V64.5H9V66.5V68.5H152.652V66.5ZM9 66.5L9.00001 64.5C6.23859 64.5 4 62.2614 4 59.5H2H0C0 64.4706 4.02947 68.5 8.99999 68.5L9 66.5ZM2 59.5H4V28.0186H2H0V59.5H2ZM2 28.0186L4 28.0186C4.00007 25.2572 6.23869 23.0186 9.00001 23.0186L9 21.0186L8.99999 19.0186C4.02948 19.0186 0.000119567 23.0481 0 28.0185L2 28.0186ZM9 21.0186V23.0186H109.407V21.0186V19.0186H9V21.0186ZM110.339 19.6558L112.202 18.9303L108.297 8.89812L106.433 9.62363L104.57 10.3491L108.475 20.3813L110.339 19.6558ZM107.808 8.36406L106.923 10.1577L118.038 15.6412L118.923 13.8476L119.808 12.054L108.693 6.57045L107.808 8.36406ZM120.229 13.4555L121.956 14.4649L128.363 3.50461L126.637 2.4952L124.91 1.48579L118.502 12.4461L120.229 13.4555ZM128.363 2.4952L126.637 3.50461L133.044 14.4649L134.771 13.4555L136.498 12.4461L130.09 1.48579L128.363 2.4952ZM126.637 2.4952L128.363 3.50461C127.977 4.165 127.023 4.16501 126.637 3.50461L128.363 2.4952L130.09 1.48579C128.932 -0.495395 126.068 -0.495379 124.91 1.48579L126.637 2.4952ZM147.192 8.36407L148.077 10.1577C147.259 10.5613 146.372 9.74832 146.703 8.89812L148.567 9.62363L150.43 10.3491C151.423 7.79855 148.762 5.35956 146.307 6.57045L147.192 8.36407ZM106.433 9.62363L108.297 8.89812C108.628 9.74832 107.741 10.5613 106.923 10.1577L107.808 8.36406L108.693 6.57045C106.238 5.35956 103.577 7.79855 104.57 10.3491L106.433 9.62363ZM118.923 13.8476L118.038 15.6412C119.451 16.3378 121.161 15.8242 121.956 14.4649L120.229 13.4555L118.502 12.4461C118.767 11.993 119.337 11.8218 119.808 12.054L118.923 13.8476ZM144.661 19.6558L142.798 18.9303C142.032 20.8971 143.483 23.0186 145.593 23.0186V21.0186V19.0186C146.297 19.0186 146.78 19.7257 146.525 20.3813L144.661 19.6558ZM109.407 21.0186V23.0186C111.517 23.0186 112.968 20.897 112.202 18.9303L110.339 19.6558L108.475 20.3813C108.22 19.7257 108.703 19.0186 109.407 19.0186V21.0186ZM136.077 13.8476L135.192 12.054C135.663 11.8218 136.233 11.993 136.498 12.4461L134.771 13.4555L133.044 14.4649C133.839 15.8242 135.549 16.3378 136.962 15.6412L136.077 13.8476Z" fill="black" mask="url(#path-1-outside-1_160_2362)"/>
<path d="M44 31H54V33H50V45H48V33H44V31ZM56 35H64V37H58V43H64V45H58V47H56V35ZM66 37V43H64V37H66ZM76 35V37H70V35H76ZM78 37V43H76V37H78ZM76 43V45H70V43H76ZM70 37V43H68V37H70ZM82 37V41H80V37H82ZM90 37V41H88V37H90ZM82 35H88V37H86V41H88V43H86V45H84V43H82V41H84V37H82V35ZM100 35V37H94V35H100ZM102 43V45H94V43H102ZM92 37H94V39H100V37H102V41H94V43H92V37ZM106 35V43H104V35H106ZM106 43H112V35H114V45H106V43Z" fill="black"/>
</svg>
